<svg width="7867" height="2000" viewBox="0 0 7867 2000" fill="none" xmlns="http://www.w3.org/2000/svg">
<path d="M3422.91 1997.2C3438.21 1997.22 3450.6 1984.79 3450.53 1969.48L3444.22 605.456C3442.68 272.403 2964.23 -1.82066 2398.18 0.00910412C1818.09 1.81722 1364.37 267.148 1357.73 602.22L1354.46 756.82C1354.14 771.749 1342.01 783.717 1327.08 783.822L1040.46 785.854C461.556 789.694 3.13953 1052.31 0.0157308 1388.06C-3.14573 1715.7 470.633 1992.62 1046.05 1993.51L3422.91 1997.2Z" fill="#F12D2D"/>
<path d="M6487.57 896.552C6487.57 744.197 6611.07 620.69 6763.41 620.69V1724.14H6487.57V896.552Z" fill="#F12D2D"/>
<path d="M5795.23 620.69C5947.57 620.69 6071.07 744.197 6071.07 896.552V1724.14H5795.23V620.69Z" fill="#F12D2D"/>
<path d="M7866.73 344.828C7866.73 497.182 7743.24 620.69 7590.9 620.69L6763.41 620.69C6763.41 468.335 6886.9 344.828 7039.24 344.828L7866.73 344.828Z" fill="#F12D2D"/>
<path d="M6487.57 1721.38V1997.24H5660.08C5507.74 1997.24 5384.24 1873.73 5384.24 1721.38H6487.57Z" fill="#F12D2D"/>
<path d="M7866.73 1724.14C7866.73 1876.49 7743.24 2000 7590.9 2000H6763.41V1724.14H7866.73Z" fill="#F12D2D"/>
<path d="M7590.9 1031.72C7743.24 1031.72 7866.73 1155.23 7866.73 1307.59L6763.41 1307.59V1031.72H7590.9Z" fill="#F12D2D"/>
<path d="M4832.58 344.828C4984.92 344.828 5108.41 468.335 5108.41 620.69H4005.08C4005.08 468.335 4128.58 344.828 4280.92 344.828L4832.58 344.828Z" fill="#F12D2D"/>
<path d="M5384.24 1724.14C5231.91 1724.14 5108.41 1600.63 5108.41 1448.28V620.69C5260.75 620.69 5384.24 744.197 5384.24 896.552V1724.14Z" fill="#F12D2D"/>
<path d="M4005.08 1721.38C3852.75 1721.38 3729.25 1597.87 3729.25 1445.52V893.793C3729.25 741.439 3852.75 617.931 4005.08 617.931V1721.38Z" fill="#F12D2D"/>
<path d="M4005.08 1307.59V1031.72L5108.41 1031.72V1307.59L4005.08 1307.59Z" fill="#F12D2D"/>
</svg>
