<svg width="1307" height="757" viewBox="0 0 1307 757" fill="none" xmlns="http://www.w3.org/2000/svg">
<path d="M1296.94 756.984C1302.49 756.993 1306.98 752.485 1306.95 746.938L1304.56 229.482C1303.98 103.247 1122.76 -0.690072 908.353 0.00345067C688.635 0.688766 516.778 101.255 514.265 228.255L513.016 287.295C512.902 292.707 508.502 297.045 503.09 297.083L394.094 297.857C174.822 299.312 1.18915 398.85 0.00595831 526.108C-1.1915 650.288 178.261 755.248 396.212 755.586L1296.94 756.984Z" fill="url(#paint0_angular)"/>
<path d="M332.698 553.506L397.395 516.341L591.488 627.835L526.79 665L332.698 553.506Z" fill="white"/>
<path d="M594.722 402.989L659.42 365.824L853.512 477.318L788.815 514.483L594.722 402.989Z" fill="white"/>
<path d="M724.117 328.659L788.815 291.494L982.907 402.989L918.21 440.153L724.117 328.659Z" fill="white"/>
<path d="M462.092 479.176L526.79 442.012L720.883 553.506L656.185 590.671L462.092 479.176Z" fill="white"/>
<path d="M332.698 553.506L268 516.341L462.092 404.847L526.79 442.012L332.698 553.506Z" fill="white"/>
<path d="M856.747 401.13L792.05 363.965L986.142 252.471L1050.84 289.636L856.747 401.13Z" fill="white"/>
<path d="M982.907 477.318L918.21 440.153L1112.3 328.659L1177 365.824L982.907 477.318Z" fill="white"/>
<path d="M724.117 328.659L659.42 291.494L853.512 180L918.21 217.165L724.117 328.659Z" fill="white"/>
<path d="M720.883 627.835L656.185 590.671L850.278 479.176L914.975 516.341L720.883 627.835Z" fill="white"/>
<path d="M911.74 518.199L847.043 481.035L1041.14 369.54L1105.83 406.705L911.74 518.199Z" fill="white"/>
<defs>
<radialGradient id="paint0_angular" cx="0" cy="0" r="1" gradientUnits="userSpaceOnUse" gradientTransform="translate(1307 757) rotate(180) scale(653.5 1129.24)">
<stop offset="0.0236725" stop-color="#FD0404"/>
<stop offset="0.259314" stop-color="#CC01FF"/>
<stop offset="0.983396" stop-color="#FF0DCA" stop-opacity="0.77"/>
</radialGradient>
</defs>
</svg>
